<svg version="1" xmlns="http://www.w3.org/2000/svg" width="1365.333" height="1365.333" viewBox="0 0 1024.000000 1024.000000"><path d="M707.9 192.4c-.2.2-4.8.7-10.1 1-5.3.4-10.6.9-11.7 1.1-1.1.2-4.4.6-7.3.9-2.9.4-6.4.8-7.8 1.1-1.3.3-4.2.7-6.5 1-6.9 1-35.6 8.3-44.9 11.4-4.9 1.7-9.2 2.9-9.6 2.6-.3-.2-.6-2.6-.5-5.4.1-3.8-.2-5-1.4-5.3-.9-.2-110.3-.3-243.1-.3l-241.5.1-.2 36.7-.3 36.7h184c101.2 0 184 .2 184 .5 0 .2-11.1 16.1-24.7 35.2-13.7 19.2-25.6 35.9-26.5 37.3-.9 1.4-9.6 13.5-19.2 27-9.7 13.5-18.1 25.3-18.8 26.3-.7 1.1-3.1 4.4-5.4 7.5-4.6 6.4-34.4 48.2-38.7 54.4-4.9 7-61.9 87.2-63.6 89.4-.9 1.2-2.2 3-2.9 4-.7 1.1-22.4 31.6-48.3 67.9-25.8 36.3-48.2 67.8-49.7 70-3.2 4.5-31.4 44.2-58.7 82.5-29.6 41.4-28.7 39.4-28.9 69.3l-.2 20.7H604v-12.9l10.3 3.5c10.7 3.6 35.2 9.8 42.5 10.8 2.4.3 4.6.7 5 1 .4.2 3.4.7 6.7 1 3.3.3 6.9.8 8.1 1 13.8 2.7 78.2 2.8 93.4.1 1.4-.2 4.8-.7 7.5-1 2.8-.3 7.5-1 10.5-1.5s6.9-1.1 8.5-1.4c15-2.3 41.6-9.9 57-16.3 16.9-7 45.2-22.4 55.5-30.3 1.9-1.4 6.2-4.6 9.5-7.1 6.1-4.5 7.2-5.4 16-13 7.9-6.9 26.5-26.2 26.5-27.5 0-.7-.3-1.4-.8-1.6-.4-.2-3.9-3.7-7.7-7.8-26.1-28.1-30.8-32.9-33.4-33.8-1.5-.6-5.1-.9-7.9-.8-5.6.3-12 3.9-19.9 11.4-21.3 20.3-54 38.5-83.3 46.5-9.8 2.7-28.2 6-40.5 7.3-21.5 2.2-58.5 2.2-71.7-.1-1.3-.2-4.5-.7-7.2-1-2.7-.3-5.1-.7-5.5-.9-.3-.2-2.4-.7-4.6-1-2.2-.4-4.8-.9-5.7-1.2-.9-.3-2.5-.6-3.5-.8-7.6-1.5-22.2-6.4-33.4-11.1-52.9-22.6-92.4-64.1-116.7-122.7-6.5-15.7-13.2-37.7-15.6-51.3-.3-1.7-.8-4.1-1.1-5.5-.2-1.3-.7-4-1-6-.3-2-.7-4.5-.9-5.6-.2-1.1-.7-4.5-1-7.5-.3-3-.9-8.3-1.3-11.9-.9-8.5-1-57.2-.1-67.5 1.4-15.2 2.9-25.3 6.3-42.5 2.3-12 6.8-26.7 14-46 6-16 20.2-41.6 30.9-55.5 2.5-3.3 5.6-7.3 6.8-9 4.5-5.9 23.5-24.2 31.8-30.6 32.9-25.3 71.2-40.1 115.2-44.6 9.6-1 47.1-1 57.1 0 42.1 4.1 81.1 19.4 119.9 46.9 14.6 10.4 23.2 12.5 32.4 8.2 4.3-2.1 5.1-3 22.8-27.8 13-18.2 15.5-22.1 14.4-23.3-.7-.8-5.1-4.8-9.8-8.8-30.9-26-65.8-46-101.4-57.9-11.8-4-26-7.9-33.4-9.2-1.5-.3-4.3-.9-6.2-1.4-1.9-.5-5.9-1.2-8.9-1.5-3-.4-6.1-.8-7-1-.9-.1-4.7-.6-8.6-1-3.8-.4-7.9-.9-9-1.2-2.4-.5-57.1-1.4-57.6-.9zM405.4 551.5c.9 15.8 1.5 24.1 2.1 29.2.3 2.4.8 6.4 1.1 9 .6 4.9.7 6.2 1.8 12.3.3 1.9.8 4.8 1.1 6.5.5 3.2 2.3 12.7 2.9 16 .2 1.1 1.6 6.5 3 12 14.8 58.1 42.4 109.1 79.6 147l8.9 9.1H365c-98.1 0-140.7-.3-140.2-1.1.3-.5 5.9-8.4 12.4-17.5s12.2-17.2 12.8-18c2.4-3.4 27.6-38.9 29.2-41.1 1.6-2.2 39.7-55.7 102.7-144.4 12.3-17.3 22.5-31.4 22.7-31.2.1.1.5 5.6.8 12.2z"/></svg>